<svg width="8" height="6" viewBox="0 0 8 6" version="1.1" xmlns="http://www.w3.org/2000/svg" xmlns:xlink="http://www.w3.org/1999/xlink">
<title>Shape</title>
<desc>Created using Figma</desc>
<g id="Canvas" transform="translate(-4316 -326)">
<g id="Shape">
<use xlink:href="#path0_stroke" transform="translate(4317 327)" fill="#00ACE2"/>
</g>
</g>
<defs>
<path id="path0_stroke" d="M 0.707107 1.29289C 0.316583 0.902369 -0.316583 0.902369 -0.707107 1.29289C -1.09763 1.68342 -1.09763 2.31658 -0.707107 2.70711L 0.707107 1.29289ZM 2 4L 1.29289 4.70711C 1.68342 5.09763 2.31658 5.09763 2.70711 4.70711L 2 4ZM 6.70711 0.707107C 7.09763 0.316583 7.09763 -0.316583 6.70711 -0.707107C 6.31658 -1.09763 5.68342 -1.09763 5.29289 -0.707107L 6.70711 0.707107ZM -0.707107 2.70711L 1.29289 4.70711L 2.70711 3.29289L 0.707107 1.29289L -0.707107 2.70711ZM 2.70711 4.70711L 6.70711 0.707107L 5.29289 -0.707107L 1.29289 3.29289L 2.70711 4.70711Z"/>
</defs>
</svg>
