<svg width="16" height="10" viewBox="0 0 16 10" version="1.1" xmlns="http://www.w3.org/2000/svg" xmlns:xlink="http://www.w3.org/1999/xlink">
<title>Combined Shape</title>
<desc>Created using Figma</desc>
<g id="Canvas" transform="translate(-5170 -299)">
<g id="Combined Shape">
<use xlink:href="#path0_fill" transform="matrix(0.707107 0.707107 -0.707107 0.707107 5174.17 296.515)" fill="#A0B0B9"/>
</g>
</g>
<defs>
<path id="path0_fill" fill-rule="evenodd" d="M 4.07411 1.08699C 4.13488 1.08699 8.58953 2.62897 8.58953 2.62897L 8.49038 2.68311C 10.573 1.64664 12.7062 0.608857 13.4977 0.302389C 13.528 0.289852 14.2422 0.000107896 14.8988 0C 15.5227 0.000323688 15.8002 0.266762 15.9281 0.49958C 16.2909 1.25807 15.2216 2.12018 14.1 2.67383L 11.7016 3.89105L 6.92539 6.31508L 3.64648 7.97832C 3.57462 8.01488 3.48731 8.00491 3.42607 7.95333L 0.068366 5.13149C 0.0400756 5.10803 0.0199423 5.07754 0.00919583 5.04401C 0.000995734 5.01854 -0.00191746 4.99146 0.00125468 4.96425C 0.00902319 4.90089 0.048211 4.84548 0.106 4.81626L 0.370043 4.67772C 0.427832 4.6485 0.497188 4.6488 0.554977 4.67897L 3.61655 5.14206C 3.61655 5.14206 4.62341 4.62699 6.00463 3.9297C 5.89293 3.82905 5.70431 3.65286 5.69831 3.65722C 5.69831 3.65722 3.48027 1.60767 3.26271 1.41083C 3.33882 1.38819 3.50056 1.31929 3.66007 1.25092C 3.85197 1.16869 4.04094 1.08697 4.07411 1.08699Z"/>
</defs>
</svg>
