<svg width="7" height="7" viewBox="0 0 7 7" version="1.1" xmlns="http://www.w3.org/2000/svg" xmlns:xlink="http://www.w3.org/1999/xlink">
<title>Shape</title>
<desc>Created using Figma</desc>
<g id="Canvas" transform="translate(-4669 -817)">
<g id="Shape">
<use xlink:href="#path0_fill" transform="translate(4669 817)" fill="#9AB0B9"/>
</g>
</g>
<defs>
<path id="path0_fill" d="M 3.43965 4.62019L 1.60165 6.40219C 1.23052 6.75712 0.64579 6.75712 0.274654 6.40219C 0.0992183 6.2343 0 6.00202 0 5.75919C 0 5.51637 0.0992183 5.28408 0.274654 5.11619L 2.11265 3.33419L 0.274654 1.55219C 0.0992183 1.3843 8.88178e-16 1.15202 8.88178e-16 0.909193C 8.88178e-16 0.666367 0.0992183 0.434084 0.274654 0.266193C 0.64579 -0.0887311 1.23052 -0.0887311 1.60165 0.266193L 3.43965 2.04819L 5.27765 0.266193C 5.64879 -0.0887311 6.23352 -0.0887311 6.60465 0.266193C 6.78009 0.434084 6.87931 0.666367 6.87931 0.909193C 6.87931 1.15202 6.78009 1.3843 6.60465 1.55219L 4.76665 3.33419L 6.60465 5.11619C 6.78009 5.28408 6.87931 5.51637 6.87931 5.75919C 6.87931 6.00202 6.78009 6.2343 6.60465 6.40219C 6.23352 6.75712 5.64879 6.75712 5.27765 6.40219L 3.43965 4.62019Z"/>
</defs>
</svg>
