<svg width="7" height="7" viewBox="0 0 7 7" version="1.1" xmlns="http://www.w3.org/2000/svg" xmlns:xlink="http://www.w3.org/1999/xlink">
<title>Shape</title>
<desc>Created using Figma</desc>
<g id="Canvas" transform="translate(-4721 -533)">
<g id="Shape">
<use xlink:href="#path0_fill" transform="translate(4721 533)" fill="#FF4C3E"/>
</g>
</g>
<defs>
<path id="path0_fill" d="M 3.44025 4.62019L 1.60225 6.40219C 1.23525 6.75719 0.64225 6.75719 0.27525 6.40219C -0.09175 6.04719 -0.09175 5.47219 0.27525 5.11619L 2.11325 3.33419L 0.27525 1.55219C 0.0995519 1.38445 0.000149014 1.15211 0.000149014 0.909193C 0.000149014 0.666276 0.0995519 0.43394 0.27525 0.266193C 0.646386 -0.0887311 1.23111 -0.0887311 1.60225 0.266193L 3.44025 2.04819L 5.27825 0.266193C 5.64939 -0.0887311 6.23411 -0.0887311 6.60525 0.266193C 6.78069 0.434084 6.8799 0.666367 6.8799 0.909193C 6.8799 1.15202 6.78069 1.3843 6.60525 1.55219L 4.76725 3.33419L 6.60525 5.11619C 6.78069 5.28408 6.8799 5.51637 6.8799 5.75919C 6.8799 6.00202 6.78069 6.2343 6.60525 6.40219C 6.23411 6.75712 5.64939 6.75712 5.27825 6.40219L 3.44025 4.62019Z"/>
</defs>
</svg>
