<svg width="304" height="2" viewBox="0 0 304 2" version="1.1" xmlns="http://www.w3.org/2000/svg" xmlns:xlink="http://www.w3.org/1999/xlink">
<title>Path 2</title>
<desc>Created using Figma</desc>
<g id="Canvas" transform="translate(-2415 -2768)">
<g id="Path 2">
<use xlink:href="#path0_stroke" transform="translate(2415 2768)" fill="#AFBEC6"/>
</g>
</g>
<defs>
<path id="path0_stroke" d="M 0 1.2L 2 1.2L 2 0.8L 0 0.8L 0 1.2ZM 6 1.2L 10 1.2L 10 0.8L 6 0.8L 6 1.2ZM 14 1.2L 18 1.2L 18 0.8L 14 0.8L 14 1.2ZM 22 1.2L 26 1.2L 26 0.8L 22 0.8L 22 1.2ZM 30 1.2L 34 1.2L 34 0.8L 30 0.8L 30 1.2ZM 38 1.2L 42 1.2L 42 0.8L 38 0.8L 38 1.2ZM 46 1.2L 50 1.2L 50 0.8L 46 0.8L 46 1.2ZM 54 1.2L 58 1.2L 58 0.8L 54 0.8L 54 1.2ZM 62 1.2L 66 1.2L 66 0.8L 62 0.8L 62 1.2ZM 70 1.2L 74 1.2L 74 0.8L 70 0.8L 70 1.2ZM 78 1.2L 82 1.2L 82 0.8L 78 0.8L 78 1.2ZM 86 1.2L 90 1.2L 90 0.8L 86 0.8L 86 1.2ZM 94 1.2L 98 1.2L 98 0.8L 94 0.8L 94 1.2ZM 102 1.2L 106 1.2L 106 0.8L 102 0.8L 102 1.2ZM 110 1.2L 114 1.2L 114 0.8L 110 0.8L 110 1.2ZM 118 1.2L 122 1.2L 122 0.8L 118 0.8L 118 1.2ZM 126 1.2L 130 1.2L 130 0.8L 126 0.8L 126 1.2ZM 134 1.2L 138 1.2L 138 0.8L 134 0.8L 134 1.2ZM 142 1.2L 146 1.2L 146 0.8L 142 0.8L 142 1.2ZM 150 1.2L 154 1.2L 154 0.8L 150 0.8L 150 1.2ZM 158 1.2L 162 1.2L 162 0.8L 158 0.8L 158 1.2ZM 166 1.2L 170 1.2L 170 0.8L 166 0.8L 166 1.2ZM 174 1.2L 178 1.2L 178 0.8L 174 0.8L 174 1.2ZM 182 1.2L 186 1.2L 186 0.8L 182 0.8L 182 1.2ZM 190 1.2L 194 1.2L 194 0.8L 190 0.8L 190 1.2ZM 198 1.2L 202 1.2L 202 0.8L 198 0.8L 198 1.2ZM 206 1.2L 210 1.2L 210 0.8L 206 0.8L 206 1.2ZM 214 1.2L 218 1.2L 218 0.8L 214 0.8L 214 1.2ZM 222 1.2L 226 1.2L 226 0.8L 222 0.8L 222 1.2ZM 230 1.2L 234 1.2L 234 0.8L 230 0.8L 230 1.2ZM 238 1.2L 242 1.2L 242 0.8L 238 0.8L 238 1.2ZM 246 1.2L 250 1.2L 250 0.8L 246 0.8L 246 1.2ZM 254 1.2L 258 1.2L 258 0.8L 254 0.8L 254 1.2ZM 262 1.2L 266 1.2L 266 0.8L 262 0.8L 262 1.2ZM 270 1.2L 274 1.2L 274 0.8L 270 0.8L 270 1.2ZM 278 1.2L 282 1.2L 282 0.8L 278 0.8L 278 1.2ZM 286 1.2L 290 1.2L 290 0.8L 286 0.8L 286 1.2ZM 294 1.2L 298 1.2L 298 0.8L 294 0.8L 294 1.2ZM 302 1.2L 304 1.2L 304 0.8L 302 0.8L 302 1.2Z"/>
</defs>
</svg>
