<svg width="23" height="26" viewBox="0 0 23 26" version="1.1" xmlns="http://www.w3.org/2000/svg" xmlns:xlink="http://www.w3.org/1999/xlink">
<title>path-3</title>
<desc>Created using Figma</desc>
<g id="Canvas" transform="translate(-2516 -7087)">
<g id="path-3">
<use xlink:href="#path0_fill" transform="translate(2517 7088)" fill="#FFFFFF"/>
<use xlink:href="#path1_stroke" transform="translate(2517 7088)" fill="#FFFFFF" fill-opacity="0.16"/>
</g>
</g>
<defs>
<path id="path0_fill" fill-rule="evenodd" d="M 17.2503 13.0643C 17.2215 9.96066 19.8763 8.45075 19.9977 8.38045C 18.4941 6.25906 16.1637 5.96921 15.3448 5.9461C 13.3875 5.74677 11.489 7.0795 10.4919 7.0795C 9.47498 7.0795 7.93962 5.96536 6.28485 5.9981C 4.15543 6.02988 2.16334 7.22298 1.07077 9.0757C -1.18402 12.8534 0.497621 18.4048 2.65788 21.4583C 3.73851 22.9548 5.00123 24.6236 6.65401 24.5648C 8.27097 24.5013 8.87497 23.5672 10.8263 23.5672C 12.7597 23.5672 13.3268 24.5648 15.0125 24.5263C 16.7478 24.5013 17.8404 23.0251 18.8832 21.5151C 20.132 19.803 20.6335 18.113 20.6534 18.0264C 20.6136 18.0138 17.2842 16.7841 17.2503 13.0643ZM 14.0661 3.93752C 14.9358 2.88501 15.5308 1.4531 15.3657 0C 14.1069 0.0539254 12.5327 0.842585 11.6262 1.87198C 10.8242 2.77909 10.1078 4.26589 10.2929 5.66409C 11.7068 5.76617 13.1586 4.97366 14.0661 3.93752Z"/>
<path id="path1_stroke" d="M 17.2503 13.0643L 17.6734 13.0604L 17.6734 13.0603L 17.2503 13.0643ZM 19.9977 8.38045L 20.2097 8.74657L 20.611 8.51418L 20.3428 8.13581L 19.9977 8.38045ZM 15.3448 5.9461L 15.3019 6.367L 15.3174 6.36857L 15.3329 6.36901L 15.3448 5.9461ZM 6.28485 5.9981L 6.29116 6.42114L 6.29321 6.4211L 6.28485 5.9981ZM 1.07077 9.0757L 1.43406 9.29254L 1.4352 9.29061L 1.07077 9.0757ZM 2.65788 21.4583L 2.31248 21.7027L 2.31489 21.706L 2.65788 21.4583ZM 6.65401 24.5648L 6.66904 24.9876L 6.67063 24.9876L 6.65401 24.5648ZM 15.0125 24.5263L 15.0063 24.1033L 15.0028 24.1033L 15.0125 24.5263ZM 18.8832 21.5151L 18.5413 21.2657L 18.5351 21.2747L 18.8832 21.5151ZM 20.6534 18.0264L 21.0657 18.121L 21.1532 17.7401L 20.7803 17.6228L 20.6534 18.0264ZM 14.0661 3.93752L 14.3845 4.21638L 14.3923 4.20701L 14.0661 3.93752ZM 15.3657 0L 15.786 -0.0477849L 15.7415 -0.439566L 15.3475 -0.422689L 15.3657 0ZM 11.6262 1.87198L 11.9432 2.15222L 11.9438 2.15159L 11.6262 1.87198ZM 10.2929 5.66409L 9.87346 5.71961L 9.91868 6.06126L 10.2624 6.08607L 10.2929 5.66409ZM 17.6734 13.0603C 17.6469 10.216 20.0893 8.81625 20.2097 8.74657L 19.7857 8.01433C 19.6632 8.08525 16.796 9.70531 16.8273 13.0682L 17.6734 13.0603ZM 20.3428 8.13581C 18.7242 5.85205 16.2246 5.54769 15.3567 5.52319L 15.3329 6.36901C 16.1028 6.39074 18.264 6.66608 19.6525 8.62509L 20.3428 8.13581ZM 15.3877 5.5252C 14.3076 5.41521 13.2665 5.72894 12.4131 6.04066C 11.9603 6.20606 11.611 6.35099 11.2561 6.47496C 10.9095 6.59602 10.6633 6.65642 10.4919 6.65642L 10.4919 7.50258C 10.8191 7.50258 11.1841 7.39639 11.5351 7.27379C 11.8777 7.15411 12.3123 6.97831 12.7034 6.83545C 13.5379 6.53063 14.4248 6.27767 15.3019 6.367L 15.3877 5.5252ZM 10.4919 6.65642C 10.3071 6.65642 10.0725 6.60441 9.77166 6.50443C 9.47072 6.40444 9.15038 6.27347 8.77866 6.13135C 8.05898 5.85619 7.19356 5.55696 6.27648 5.57511L 6.29321 6.4211C 7.0309 6.4065 7.76055 6.64798 8.47648 6.9217C 8.82257 7.05402 9.18017 7.19954 9.50484 7.30742C 9.82957 7.41532 10.1683 7.50258 10.4919 7.50258L 10.4919 6.65642ZM 6.27853 5.57507C 3.99615 5.60913 1.87101 6.88581 0.706342 8.8608L 1.4352 9.29061C 2.45567 7.56015 4.31472 6.45063 6.29116 6.42113L 6.27853 5.57507ZM 0.707486 8.85887C -0.490747 10.8664 -0.626856 13.3138 -0.207537 15.6144C 0.212288 17.9178 1.19734 20.1264 2.3125 21.7027L 3.00326 21.214C 1.95816 19.7367 1.02226 17.6428 0.624903 15.4627C 0.227036 13.2798 0.377501 11.0627 1.43406 9.29254L 0.707486 8.85887ZM 2.31489 21.706C 2.85226 22.4502 3.4621 23.277 4.15697 23.908C 4.85335 24.5403 5.68574 25.0226 6.66904 24.9876L 6.63898 24.142C 5.9695 24.1658 5.34413 23.843 4.7258 23.2815C 4.10596 22.7187 3.54413 21.9629 3.00087 21.2106L 2.31489 21.706ZM 6.67063 24.9876C 7.56484 24.9524 8.18793 24.6712 8.77339 24.4344C 9.35105 24.2008 9.93064 23.9903 10.8263 23.9903L 10.8263 23.1441C 9.7706 23.1441 9.07254 23.4007 8.45614 23.65C 7.84753 23.8961 7.36014 24.1137 6.63739 24.1421L 6.67063 24.9876ZM 10.8263 23.9903C 11.7072 23.9903 12.2691 24.2128 12.8512 24.4524C 13.4454 24.697 14.082 24.9707 15.0221 24.9493L 15.0028 24.1033C 14.2573 24.1204 13.7675 23.9145 13.1733 23.67C 12.5671 23.4204 11.8787 23.1441 10.8263 23.1441L 10.8263 23.9903ZM 15.0186 24.9493C 16.0188 24.9349 16.8201 24.4981 17.4913 23.8914C 18.1533 23.2929 18.7126 22.5066 19.2313 21.7556L 18.5351 21.2747C 18.011 22.0336 17.5026 22.7404 16.9238 23.2637C 16.3541 23.7788 15.7415 24.0927 15.0063 24.1033L 15.0186 24.9493ZM 19.225 21.7645C 20.5123 19.9995 21.035 18.255 21.0657 18.121L 20.2411 17.9317C 20.2418 17.9286 20.2136 18.0315 20.1449 18.2271C 20.0787 18.4153 19.979 18.6782 19.8417 18.9912C 19.5667 19.6183 19.1434 20.4405 18.5414 21.2658L 19.225 21.7645ZM 20.7803 17.6228C 20.8076 17.6313 20.0233 17.3482 19.236 16.6242C 18.46 15.9105 17.689 14.7781 17.6734 13.0604L 16.8273 13.0681C 16.8455 15.0703 17.7561 16.4127 18.6632 17.247C 19.559 18.0709 20.4594 18.4089 20.5265 18.4299L 20.7803 17.6228ZM 14.3923 4.20701C 15.3142 3.0912 15.9675 1.5484 15.786 -0.0477849L 14.9453 0.0477849C 15.0942 1.35779 14.5573 2.67882 13.74 3.66803L 14.3923 4.20701ZM 15.3475 -0.422689C 13.9626 -0.363359 12.2838 0.485162 11.3087 1.59238L 11.9438 2.15159C 12.7817 1.20001 14.2512 0.47121 15.3838 0.422689L 15.3475 -0.422689ZM 11.3093 1.59175C 10.459 2.55342 9.66676 4.15808 9.87346 5.71961L 10.7123 5.60858C 10.5488 4.37369 11.1894 3.00475 11.9432 2.15222L 11.3093 1.59175ZM 10.2624 6.08607C 11.8438 6.20023 13.4157 5.32228 14.3844 4.21627L 13.7478 3.65877C 12.9016 4.62504 11.5699 5.3321 10.3233 5.24212L 10.2624 6.08607Z"/>
</defs>
</svg>
